<?xml version="1.0" encoding="utf-8"?>
<!-- Generator: Adobe Illustrator 23.0.1, SVG Export Plug-In . SVG Version: 6.00 Build 0)  -->
<svg version="1.1" id="Cloud_computing" xmlns="http://www.w3.org/2000/svg" xmlns:xlink="http://www.w3.org/1999/xlink" x="0px"
	 y="0px" viewBox="0 0 203.1 203.1" style="enable-background:new 0 0 203.1 203.1;" xml:space="preserve">
<style type="text/css">
	.st0{fill:#E20021;}
	.st1{fill:#051E82;}
</style>
<title>icons-usa</title>
<g id="_82VhvN">
	<path class="st0" d="M200.5,125.2c-1.7,5-3.4,9.8-5,14.6c-0.4,1.2-1.3,1-2.1,1h-86.6c-32.3,0-64.6,0-96.9,0
		c-1.2,0.2-2.4-0.6-2.6-1.8c-1.5-4.6-3-9.1-4.6-13.9L200.5,125.2z"/>
	<path class="st0" d="M16.5,156.3h170.8c-3.2,4.1-6.3,7.8-9,11.7c-2.3,3.2-5.1,4.2-9.1,4.2c-46.3-0.2-92.5-0.2-138.8-0.1
		c-1.1,0.1-2.2-0.4-2.9-1.2c-3.8-4.7-7.7-9.4-11.5-14.1L16.5,156.3z"/>
	<path class="st0" d="M47.8,187.4h107.1c-7,7.2-35.9,15.9-53.3,15.6C82.5,202.7,64.5,197.9,47.8,187.4z"/>
</g>
<path class="st0" d="M184.5,43.1c-2.8-3.5-5.7-7-8.5-10.5c-0.7-0.9-1.8-1.4-3-1.3c-21.5,0-42.9,0-64.4,0h-2.7v15.9h81.3
	C186.1,45.6,185.4,44.3,184.5,43.1z"/>
<path class="st0" d="M155.5,15.6c-0.6-0.4-1.2-0.7-1.8-1.1c-6.8-4.1-14-7.3-21.6-9.7c-6.9-2.2-14.1-3.7-21.4-4.3
	c-1.1-0.1-2.3-0.4-3.4-0.6h-1.4v15.9h49.5L155.5,15.6z"/>
<path class="st0" d="M197.8,69.5c-0.6-2-1.4-4-2.2-5.9c-0.2-0.5-0.9-0.8-1.5-1c-0.4-0.1-0.8-0.1-1.3,0h-87v15.9h94.6
	C199.5,75.3,198.7,72.4,197.8,69.5z"/>
<path class="st1" d="M95.8,0c-2.9,0.4-5.8,0.7-8.7,1.2c-3.9,0.7-7.8,1.4-11.7,2.4c-7.1,1.8-14,4.4-20.5,7.9
	c-6.9,3.5-13.4,7.8-19.2,13c-3.6,3.3-7.3,6.6-10.5,10.2c-5.6,6.3-10.4,13.4-14.2,21c-1,1.9-1.8,3.8-2.7,5.7
	c-0.7,1.6-0.5,1.8,1.2,1.8h2.9L9,65.7c0.4,1.2,0.9,2.5,1.5,4.2l-3.7-2.8c-0.5,0.6-0.9,1.2-1.3,1.9c-1.5,5-2.8,10-4.3,15.3h4.4
	l1.3-4.1c0.4,1,0.6,1.9,0.9,2.9c0.2,1.1,0.8,1.4,1.9,1.3c1-0.1,2-0.1,3,0c-1.1,0.7-1.8,1.3-2.5,1.7c-0.7,0.2-1.1,1-0.8,1.7
	c0,0.1,0.1,0.2,0.1,0.3c0.4,1,0.7,2,1,3l-3.5-2.7l-3.6,2.7l1.4-4.2l-3.2-2.2L0,95.6v12.1c0.2,0.6,0.3,1.2,0.5,1.8h103.2V0H95.8z
	 M85.5,10.6h3.8c0.4-1.3,0.8-2.5,1.4-4.2c0.5,1.6,0.9,2.8,1.3,4.2h4.5l-3.6,2.5c0.4,1.3,0.8,2.5,1.4,4.3l-3.6-2.7l-3.6,2.7
	c0.6-1.6,1-2.9,1.4-4.2l-3.2-2.3L85.5,10.6z M94.3,81.2l-3.6-2.7l-3.6,2.7c0.6-1.6,1-2.9,1.5-4.3l-3.5-2.4h4.2
	c0.4-1.3,0.8-2.6,1.4-4.3c0.5,1.6,0.9,2.9,1.3,4.2h4.4l-3.6,2.5L94.3,81.2z M94.3,59.9l-3.6-2.7l-3.6,2.7c0.6-1.6,1-2.9,1.4-4.2
	L85,53.2h4.3c0.4-1.3,0.8-2.6,1.4-4.2c0.5,1.6,0.9,2.9,1.3,4.2h4.4l-3.6,2.5C93.3,57,93.7,58.2,94.3,59.9L94.3,59.9z M89.4,31.9
	c0.4-1.3,0.8-2.6,1.4-4.3c0.4,1.2,0.7,2,0.8,2.9c0.2,1.1,0.7,1.6,1.9,1.4c1-0.1,1.9-0.1,2.9,0l-3.5,2.5c0.4,1.3,0.8,2.6,1.4,4.2
	L90.7,36l-3.6,2.7c0.6-1.6,1-2.9,1.4-4.2L85,31.9L89.4,31.9z M77.4,20.7c0.4-1.3,0.8-2.5,1.3-4.2l1.4,4.2h4.3l-3.5,2.4l1.4,4.2
	c-0.6-0.4-1.2-0.8-1.7-1.3c-1.2-1.3-2.4-1.5-3.6,0c-0.4,0.4-0.9,0.7-1.4,1c-0.1-0.2-0.2-0.3-0.2-0.3c0.3-1.2,1.2-2.6,0.9-3.5
	s-1.9-1.5-3.1-2.5L77.4,20.7z M82.4,48.3h-0.5c-0.5-0.3-0.9-0.6-1.3-1c-1.2-1.3-2.4-1.5-3.6,0c-0.5,0.4-1,0.8-1.6,1.2
	c0.4-1.6,1.3-3,1-4s-1.9-1.6-2.9-2.4c0.1-0.1,0.1-0.2,0.1-0.2c3,0.6,5-0.3,4.9-4l0.4,0.3c0.3,0.9,0.6,1.8,0.8,2.7s0.7,1.2,1.6,1.1
	c0.9-0.1,1.9-0.1,2.8,0c0,0.1,0,0.3-0.1,0.3C81.1,43.4,80.2,45.4,82.4,48.3L82.4,48.3z M41.5,31.9l1.3-4.2c0.4,1,0.7,2,1,3.1
	c0.2,1,0.7,1.2,1.6,1.2c1-0.1,2.1-0.1,3.1,0c-1,0.7-1.7,1.3-2.5,1.7c-0.7,0.2-1.1,1-0.8,1.7c0,0.1,0.1,0.2,0.2,0.3c0.4,1,0.7,2,1,3
	L42.8,36l-3.5,2.6c0.4-1.5,1.3-3,1-4.1s-1.9-1.6-3.1-2.6H41.5z M22.5,102.4l-3.6-2.7l-3.5,2.7c0.5-1.6,1-2.9,1.4-4.2l-3.5-2.5h4.3
	c0.4-1.4,0.9-2.6,1.4-4.3l1.3,4.2h3.9l0.1,0.3L21,98.2C21.5,99.5,21.9,100.7,22.5,102.4L22.5,102.4z M22.5,81.1l-3.6-2.7l-3.5,2.7
	c0.5-1.6,1-2.9,1.4-4.2l-3.1-2.2l0.2-0.3h3.8c0.4-1.3,0.8-2.5,1.4-4.2c0.5,1.6,0.9,2.8,1.3,4.2H24l0.1,0.3L21,76.9L22.5,81.1z
	 M21,55.7c0.5,1.3,0.9,2.6,1.5,4.2l-3.6-2.7l-3.5,2.7l1.4-4.2l-3.5-2.5h4.3c0.4-1.3,0.8-2.6,1.4-4.3c0.5,1.7,0.9,2.9,1.3,4.2h4.4
	L21,55.7z M33.3,66.8c0.4,0.8,0.6,1.7,1.1,3c-0.8-0.5-1.6-1.1-2.4-1.8c-0.5-0.7-1.4-0.8-2.1-0.3c-0.1,0.1-0.2,0.2-0.3,0.3
	c-0.7,0.6-1.5,1.2-2.3,1.8c0.5-1.6,1.4-3.1,1-4.2s-1.9-1.6-3.1-2.5h4.2l1.4-4.2c0.5,1.7,0.9,2.9,1.3,4.2H36l0.2,0.3
	c-0.7,0.5-1.4,1.1-2.3,1.5S32.9,65.9,33.3,66.8z M34.3,90.6l-0.2,0.2l-3.2-2.4L27.4,91c0.5-1.6,1.3-3,1-4.1s-1.9-1.6-3.2-2.6
	c0.5,0,0.7,0,0.9,0c3.3,0,3.3,0,4.3-3.3c0.1-0.3,0.2-0.5,0.4-0.8l1.3,4.1h4.3l-3.5,2.4C33.4,88.2,33.8,89.4,34.3,90.6z M32.9,44.4
	c0.4,1.2,0.9,2.5,1.5,4.2l-3.6-2.7l-3.6,2.7c0.6-1.7,1-2.9,1.5-4.2l-3.6-2.4c0.8-0.1,1.6-0.1,2.5,0c1.6,0.3,2.3-0.3,2.5-1.8
	c0.2-0.8,0.4-1.6,0.7-2.4c0.5,1.7,0.9,3,1.3,4.2h4.3L32.9,44.4z M41.5,53.1c0.4-1.3,0.8-2.5,1.3-4.2c0.5,1.7,1,2.9,1.3,4.2h4.2
	c-0.4,0.4-0.6,0.6-0.9,0.8c-2.5,1.8-2.5,1.8-1.5,4.7c0.1,0.3,0.2,0.6,0.4,1.3l-3.6-2.7c-1.1,0.8-2.2,1.6-3.6,2.7
	c0.6-1.7,1-2.9,1.5-4.3l-3.6-2.5L41.5,53.1z M45.3,99.4c0.4,0.8,0.6,1.7,1,3l-3.6-2.7l-3.6,2.7c0.4-1.3,0.7-2.3,1.1-3.1
	c0.4-0.5,0.2-1.3-0.3-1.6c-0.1-0.1-0.2-0.1-0.3-0.1c-0.8-0.5-1.5-1-2.3-1.6l0.2-0.3c1.3,0,2.9,0.4,3.8-0.3c0.9-0.6,0.9-2.3,1.4-3.9
	c0.4,1.3,0.8,2.2,1,3.2s0.6,1.1,1.4,1s1.9,0,3.3,0c-1,0.7-1.7,1.3-2.5,1.7c-0.7,0.3-1,1.1-0.8,1.7C45.3,99.3,45.3,99.4,45.3,99.4
	L45.3,99.4z M46,76.1c-0.7,0.2-1.1,1-0.9,1.7c0,0.1,0.1,0.2,0.2,0.3c0.4,0.8,0.6,1.7,1,3l-3.6-2.7c-1.1,0.8-2.2,1.6-3.6,2.8
	c0.3-1,0.6-1.9,1-2.9c0.5-1.1,0.2-1.7-0.8-2.3c-0.7-0.4-1.4-0.9-2-1.4c0.2-0.2,0.3-0.3,0.4-0.3c3.7,0.1,3.7,0.1,5-4.1l1.4,4.1h4.5
	C47.5,75.1,46.8,75.7,46,76.1L46,76.1z M53.4,20.6l1.3-4.3l1.3,4.3h4.4l-3.5,2.5c0.4,1.3,0.9,2.5,1.3,3.8L57.9,27l-3.1-2.4L51.7,27
	l-0.3-0.1c0.4-1.2,0.8-2.5,1.3-3.8l-3.5-2.5L53.4,20.6z M58.2,48.2c-0.1,0-0.2,0-0.3,0.1c-1.1-0.7-2.2-2-3.2-2s-2,1.3-3.4,2.3
	l1.4-4.2l-3.4-2.5h4.3c0.4-1.3,0.8-2.6,1.2-3.9c0.1,0.1,0.2,0.1,0.2,0.1c0.5,3,1.7,4.9,5.6,3.3L60.2,42l-3.3,2.3
	C57.4,45.7,57.8,46.9,58.2,48.2L58.2,48.2z M58.2,90.7l-0.3,0.1l-3.1-2.3l-3.1,2.4l-0.3-0.1l1.3-3.8l-3.5-2.5h4.3
	c0.4-1.3,0.8-2.6,1.3-4.3l1.3,4.2h4.4l-3.6,2.5C57.4,88.2,57.8,89.4,58.2,90.7L58.2,90.7z M56.9,65.6l1.4,4.2l-3.6-2.7l-3.1,2.4
	l-0.3-0.1l1.3-3.8l-3.5-2.4h4.3c0.4-1.4,0.8-2.7,1.3-4.3c0.5,1.7,0.9,2.9,1.3,4.3h4.4L56.9,65.6z M70.3,81.2l-3.6-2.7l-3.6,2.8
	l1.5-4.3l-3.5-2.5c0.6,0,0.8-0.1,1-0.1c3.3,0.1,3.3,0.1,4.3-3c0.1-0.3,0.2-0.5,0.4-1c0.3,0.9,0.5,1.5,0.7,2.1s0.4,1.3,0.6,2h4.3
	l-3.4,2.5C69.3,78.2,69.8,79.5,70.3,81.2z M70.3,102.4l-3.6-2.7l-3.6,2.7c0.6-1.7,1-2.9,1.4-4.2l-3.5-2.5h4.3l1.3-4.2l1.4,4.2h4.3
	l-3.5,2.5L70.3,102.4z M68.9,55.7l1.4,4.2l-3.6-2.7l-3.6,2.7l1.4-4.3L61,53.1h4.4l1.3-4.2l1.3,4.2h4.4L68.9,55.7z M68.9,34.4
	c0.5,1.4,0.9,2.6,1.5,4.3l-3.6-2.7l-3.6,2.7c0.6-1.7,1-2.9,1.4-4.2l-3.6-2.5h4.3c0.4-1.3,0.8-2.6,1.3-4.2l1.3,4.2h4.4L68.9,34.4z
	 M68.9,13.1c0.5,1.3,0.9,2.6,1.3,3.8L70,17.1l-3.2-2.5l-3.6,2.7c0.6-1.7,1-3,1.4-4.3l-3.6-2.5h4.3l1.3-4.2c0.5,1.6,0.9,2.9,1.3,4.2
	h4.4L68.9,13.1z M82.2,90.6l-0.2,0.2c-0.7-0.5-1.4-1-2.1-1.6c-0.4-0.6-1.3-0.7-1.9-0.3c-0.1,0.1-0.2,0.2-0.3,0.3
	c-0.6,0.6-1.4,1.1-2.4,1.8c0.1-0.6,0.2-0.9,0.3-1.2c1-3,1-3-1.7-4.8c-0.2-0.1-0.3-0.3-0.7-0.6h4.3c0.4-1.3,0.8-2.6,1.3-4.3l1.4,4.2
	h4.4l-3.6,2.4C81.3,88.1,81.7,89.4,82.2,90.6L82.2,90.6z M80.9,65.6c0.4,1.3,0.9,2.5,1.3,3.8c-0.2,0-0.3,0.1-0.4,0
	c-1-0.7-2.1-2-3.1-2s-2,1.3-3.4,2.3c0.3-0.9,0.4-1.4,0.6-1.9c0.8-2.3,0.8-2.3-1.3-3.7l-1.7-1.1h4.5c0.4-1.2,0.7-2.4,1.3-4.1l1.4,4.2
	h4.4L80.9,65.6z M94.3,102.4l-3.6-2.7l-3.6,2.7c0.6-1.6,1-2.9,1.4-4.2l-3.7-2.6h4.4c0.4-1.2,0.8-2.5,1.4-4.2
	c0.5,1.6,0.9,2.8,1.3,4.2h4.4l-3.6,2.5C93.3,99.4,93.7,100.7,94.3,102.4L94.3,102.4z"/>
<path class="st0" d="M202.6,93.7h-96.8v15.7h96.8c0.2-0.6,0.3-1.2,0.5-1.8V95.5L202.6,93.7z"/>
</svg>
