<?xml version="1.0" encoding="utf-8"?>
<!-- Generator: Adobe Illustrator 22.1.0, SVG Export Plug-In . SVG Version: 6.00 Build 0)  -->
<svg version="1.1" id="Countryflags.com" xmlns="http://www.w3.org/2000/svg" xmlns:xlink="http://www.w3.org/1999/xlink" x="0px"
	 y="0px" viewBox="0 0 300 300" style="enable-background:new 0 0 300 300;" xml:space="preserve">
<style type="text/css">
	.st0{clip-path:url(#SVGID_2_);}
	.st1{fill:#CC0001;}
	.st2{fill:#FFFFFF;}
	.st3{fill:#010066;}
	.st4{fill:#FFCC00;}
</style>
<g>
	<defs>
		<rect id="SVGID_1_" width="300" height="300"/>
	</defs>
	<clipPath id="SVGID_2_">
		<use xlink:href="#SVGID_1_"  style="overflow:visible;"/>
	</clipPath>
	<g class="st0">
		<rect id="_x31_1_1_" x="-50" class="st1" width="600" height="300"/>
		<rect id="_x31_0_1_" x="-50" y="278.6" class="st2" width="600" height="21.4"/>
		<rect id="_x39__1_" x="-50" y="235.7" class="st2" width="600" height="21.4"/>
		<rect id="_x38__1_" x="-50" y="192.9" class="st2" width="600" height="21.4"/>
		<rect id="_x37__1_" x="-50" y="150" class="st2" width="600" height="21.4"/>
		<rect id="_x36__1_" x="-50" y="107.1" class="st2" width="600" height="21.4"/>
		<rect id="_x35__1_" x="-50" y="64.3" class="st2" width="600" height="21.4"/>
		<rect id="_x34__1_" x="-50" y="21.4" class="st2" width="600" height="21.4"/>
		<rect id="_x33_" x="-50" class="st3" width="300" height="171.4"/>
		<path id="_x32__1_" class="st4" d="M73.4,21.4c-35.6,0-64.5,28.8-64.5,64.3c0,35.5,28.9,64.3,64.5,64.3c12.9,0,24.8-3.8,34.9-10.2
			c-5.9,2-12.2,3.1-18.7,3.1c-31.6,0-57.2-25.5-57.2-57s25.6-57,57.2-57c7,0,13.7,1.2,19.8,3.5C99.2,25.5,86.8,21.4,73.4,21.4z"/>
		<path id="_x31__1_" class="st4" d="M180.4,119.2L153.2,105l8,29l-18.2-24.3l-5.7,29.5l-5.6-29.6l-18.2,24.2l8.1-29l-27.2,14.1
			l20.2-22.7l-30.8,1.2l28.3-11.9L84,73.7l30.8,1.3L94.6,52.2l27.2,14.2l-8-29l18.2,24.3l5.7-29.5l5.6,29.6l18.2-24.2l-8.1,29
			l27.2-14.1l-20.2,22.7l30.8-1.2l-28.3,11.9l28.3,12l-30.8-1.3L180.4,119.2z"/>
	</g>
</g>
</svg>
