<?xml version="1.0" encoding="utf-8"?>
<!-- Generator: Adobe Illustrator 21.1.0, SVG Export Plug-In . SVG Version: 6.00 Build 0)  -->
<svg version="1.1" id="Слой_1" xmlns="http://www.w3.org/2000/svg" xmlns:xlink="http://www.w3.org/1999/xlink" x="0px" y="0px"
	 viewBox="0 0 585.5 99.3" style="enable-background:new 0 0 585.5 99.3;" xml:space="preserve">
<style type="text/css">
	.st0{clip-path:url(#SVGID_2_);}
	.st1{clip-path:url(#SVGID_4_);fill:#FFFFFF;}
	.st2{clip-path:url(#SVGID_4_);fill:#E8AE4A;}
	.st3{opacity:0.75;clip-path:url(#SVGID_4_);}
	.st4{clip-path:url(#SVGID_6_);fill:#E8AE4A;}
	.st5{opacity:0.5;clip-path:url(#SVGID_4_);}
	.st6{clip-path:url(#SVGID_8_);fill:#E8AE4A;}
	.st7{opacity:0.4;clip-path:url(#SVGID_4_);}
	.st8{clip-path:url(#SVGID_10_);fill:#E8AE4A;}
</style>
<g>
	<defs>
		<rect id="SVGID_1_" width="585.5" height="99.3"/>
	</defs>
	<clipPath id="SVGID_2_">
		<use xlink:href="#SVGID_1_"  style="overflow:visible;"/>
	</clipPath>
	<g class="st0">
		<defs>
			<rect id="SVGID_3_" y="0" width="585.5" height="99.3"/>
		</defs>
		<clipPath id="SVGID_4_">
			<use xlink:href="#SVGID_3_"  style="overflow:visible;"/>
		</clipPath>
		<path class="st1" d="M146.1,1.9c1.9,1,3.4,2.3,4.5,4.1c1.1,1.7,1.6,3.7,1.6,5.9c0,2.2-0.5,4.2-1.6,6c-1.1,1.7-2.5,3.1-4.5,4.1
			c-1.9,1-4.1,1.5-6.5,1.5c-2.4,0-4.6-0.5-6.5-1.5c-1.9-1-3.4-2.3-4.5-4.1c-1.1-1.7-1.6-3.7-1.6-6c0-2.2,0.5-4.2,1.6-5.9
			c1.1-1.7,2.6-3.1,4.5-4.1c1.9-1,4.1-1.5,6.5-1.5C142.1,0.4,144.2,0.9,146.1,1.9 M128.4,29.5h22.8V98h-22.8V29.5z"/>
		<path class="st1" d="M207,80.5v16.9c-3.8,1.3-7.9,2-12.5,2c-7.4,0-13-1.8-16.8-5.3c-3.8-3.5-5.7-9-5.7-16.5V45.9H164V29.5h8.1
			V12.2h22.7v17.2h11v16.4h-11v28.2c0,1.7,0.2,3.1,0.6,4c0.4,1,1.1,1.6,2,2c1,0.4,2.4,0.6,4.2,0.6C204.2,80.7,206,80.6,207,80.5"/>
		<path class="st1" d="M275.1,34.8c4.1,4.4,6.1,11.5,6.1,21.3V98h-22.8V56c0-3.7-0.8-6.2-2.3-7.5c-1.5-1.4-3.8-2-6.9-2
			c-3.8,0-6.6,1-8.3,3V98h-22.7V0.7h22.7v36c2.2-2.7,4.7-4.8,7.6-6.3c2.9-1.5,6.1-2.2,9.6-2.2C265.3,28.2,271,30.4,275.1,34.8"/>
		<path class="st1" d="M298.7,45c2.6-5.3,6.3-9.4,11.3-12.4c5-3,11-4.5,18.1-4.5c7.1,0,13.2,1.5,18.2,4.5c5,3,8.8,7.1,11.3,12.4
			c2.6,5.3,3.8,11.3,3.8,18.1v1.3c0,6.8-1.3,12.8-3.8,18.1c-2.6,5.2-6.3,9.3-11.3,12.3c-5,3-11,4.5-18.1,4.5s-13.2-1.5-18.2-4.5
			c-5-3-8.8-7.1-11.4-12.3c-2.6-5.2-3.8-11.3-3.8-18.1v-1.3C294.8,56.3,296.1,50.3,298.7,45 M319.8,76.6c1.5,2.9,4.3,4.3,8.4,4.3
			c3.9,0,6.7-1.4,8.2-4.3c1.6-2.9,2.3-6.9,2.3-12.2v-1.3c0-5.2-0.8-9.2-2.3-12.1c-1.6-2.9-4.4-4.4-8.4-4.4c-3.9,0-6.7,1.5-8.2,4.4
			c-1.6,3-2.3,7-2.3,12.1v1.3C317.5,69.7,318.3,73.8,319.8,76.6"/>
		<polygon class="st1" points="436.2,29.5 414.1,98 399.9,98 390.4,98 368.4,29.5 392.5,29.5 402.2,70.6 412.2,29.5 		"/>
		<path class="st1" d="M510,71.3h-41.6c0.9,3,2.5,5.4,5,7.1c2.4,1.7,5.4,2.5,9,2.5c3,0,5.9-0.5,8.6-1.5c2.7-1,5-2.7,6.9-4.9
			L508,87.7c-1.5,2-3.6,3.9-6.2,5.7c-2.6,1.8-5.8,3.2-9.3,4.3c-3.6,1.1-7.5,1.6-11.6,1.6c-7.4,0-13.7-1.5-19.2-4.6
			c-5.4-3-9.6-7.1-12.4-12.2c-2.9-5.1-4.3-10.6-4.3-16.6v-2.3c0-6.6,1.2-12.6,3.7-18c2.4-5.3,6.2-9.6,11.2-12.7
			c5-3.1,11.2-4.7,18.6-4.7c6.4,0,12,1.3,16.8,4c4.8,2.7,8.4,6.5,11,11.5c2.6,5,3.8,11,3.8,17.9V71.3z M478.2,46.6
			c-3.1,0-5.5,0.9-7,2.8c-1.6,1.9-2.6,4.4-3.1,7.6h19.8v-1.8C488,49.4,484.8,46.6,478.2,46.6"/>
		<path class="st1" d="M579.9,34.5c3.8,4.2,5.6,11.2,5.6,20.9V98h-22.8V55.4c0-2.4-0.3-4.3-1-5.6c-0.7-1.3-1.7-2.2-3-2.6
			c-1.3-0.4-3-0.7-5.1-0.7c-3.7,0-6.5,1.3-8.2,3.8V98h-22.7V29.5h21.3l0.8,7.9c2.3-3,5.1-5.3,8.4-6.8c3.3-1.6,7-2.3,11-2.3
			C570.8,28.2,576.1,30.3,579.9,34.5"/>
		<path class="st2" d="M7.8,76.7h32.7c2.6,0,4.4,2.1,3.9,4.8l-2.1,12c-0.5,2.6-3,4.8-5.6,4.8H4c-2.6,0-4.4-2.1-3.9-4.8l2.1-12
			C2.7,78.8,5.2,76.7,7.8,76.7"/>
		<g class="st3">
			<g>
				<defs>
					<rect id="SVGID_5_" x="4.5" y="51.1" width="44.6" height="21.6"/>
				</defs>
				<clipPath id="SVGID_6_">
					<use xlink:href="#SVGID_5_"  style="overflow:visible;"/>
				</clipPath>
				<path class="st4" d="M12.3,51.1h32.7c2.6,0,4.4,2.1,3.9,4.8l-2.1,12c-0.5,2.6-3,4.8-5.6,4.8H8.5c-2.6,0-4.4-2.1-3.9-4.8l2.1-12
					C7.2,53.3,9.7,51.1,12.3,51.1"/>
			</g>
		</g>
		<g class="st5">
			<g>
				<defs>
					<rect id="SVGID_7_" x="9" y="25.6" width="44.6" height="21.6"/>
				</defs>
				<clipPath id="SVGID_8_">
					<use xlink:href="#SVGID_7_"  style="overflow:visible;"/>
				</clipPath>
				<path class="st6" d="M16.8,25.6h32.7c2.6,0,4.4,2.1,3.9,4.8l-2.1,12c-0.5,2.6-3,4.8-5.6,4.8H13c-2.6,0-4.4-2.1-3.9-4.8l2.1-12
					C11.7,27.7,14.2,25.6,16.8,25.6"/>
			</g>
		</g>
		<g class="st7">
			<g>
				<defs>
					<rect id="SVGID_9_" x="13.5" y="0" width="44.6" height="21.6"/>
				</defs>
				<clipPath id="SVGID_10_">
					<use xlink:href="#SVGID_9_"  style="overflow:visible;"/>
				</clipPath>
				<path class="st8" d="M21.3,0h32.7c2.6,0,4.4,2.1,3.9,4.8l-2.1,12c-0.5,2.6-3,4.8-5.6,4.8H17.5c-2.6,0-4.4-2.1-3.9-4.8l2.1-12
					C16.2,2.1,18.7,0,21.3,0"/>
			</g>
		</g>
		<path class="st2" d="M102.7,26.2c-8.1,0-15.9,4.3-21,10.7c0,0,0,0,0-0.1c-2.8-6.4-9.1-10.6-17.2-10.6c-1.3,0-2.6,0.1-3.9,0.3
			l-8.8,49.9L69,97.3c0.4,0.5,1,0.8,1.8,0.8c0,0,0.1,0,0.1,0c0.8,0,1.6-0.3,2.2-0.8l37.4-31.8c5.4-4.1,9.5-10.1,10.7-16.9
			C123.3,36.2,115.1,26.2,102.7,26.2 M97.3,65.7L74,85.6c-0.3,0.2-0.6,0.4-1,0.5l6.8-38.8c3.2-3.7,7.8-6.1,12.6-6.1
			c7.7,0,12.9,6.3,11.5,14C103.2,59.4,100.7,63.2,97.3,65.7"/>
		<polygon class="st2" points="88,0.8 70.9,98.1 48,98.1 65.2,0.8 		"/>
	</g>
</g>
</svg>
